<!DOCTYPE svg PUBLIC "-//W3C//DTD SVG 1.1//EN" "http://www.w3.org/Graphics/SVG/1.1/DTD/svg11.dtd">

<!-- Uploaded to: SVG Repo, www.svgrepo.com, Transformed by: SVG Repo Mixer Tools -->
<svg fill="#000000" width="30px" height="30px" viewBox="0 0 24 24" id="paper-clip-top-right" data-name="Flat Line" xmlns="http://www.w3.org/2000/svg" class="icon flat-line" transform="rotate(45)matrix(1, 0, 0, -1, 0, 0)">

<g id="SVGRepo_bgCarrier" stroke-width="0"/>

<g id="SVGRepo_tracerCarrier" stroke-linecap="round" stroke-linejoin="round"/>

<g id="SVGRepo_iconCarrier">

<path id="primary" d="M5.23,8.73,9.18,4.78a6.1,6.1,0,0,1,8.61,0h0a6.09,6.09,0,0,1,0,8.6l-6.43,6.43a4,4,0,0,1-5.74,0h0a4.06,4.06,0,0,1,0-5.73l6.74-6.74a2,2,0,0,1,2.87,0h0a2,2,0,0,1,0,2.87l-7,7" style="fill: none; stroke: #000000; stroke-linecap: round; stroke-linejoin: round; stroke-width: 2;"/>

</g>

</svg>